<mxfile host="app.diagrams.net" modified="2023-09-04T20:11:51.755Z" agent="Mozilla/5.0 (Windows NT 10.0; Win64; x64) AppleWebKit/537.36 (KHTML, like Gecko) Chrome/116.0.0.0 Safari/537.36" etag="bZIj64A45q8MD2cnb7LR" version="21.7.2" type="device">
  <diagram name="PÃ¡gina-1" id="-HrGHCPnRH2RN8DCrMH_">
    <mxGraphModel dx="1221" dy="1242" grid="1" gridSize="10" guides="1" tooltips="1" connect="1" arrows="1" fold="1" page="1" pageScale="1" pageWidth="827" pageHeight="1169" math="0" shadow="0">
      <root>
        <mxCell id="0" />
        <mxCell id="1" parent="0" />
        <mxCell id="60ZnH8WcEPi6PyOxubV6-22" value="" style="sketch=0;pointerEvents=1;shadow=0;dashed=0;html=1;strokeColor=none;fillColor=#434445;aspect=fixed;labelPosition=center;verticalLabelPosition=bottom;verticalAlign=top;align=center;outlineConnect=0;shape=mxgraph.vvd.laptop;" parent="1" vertex="1">
          <mxGeometry x="26.439999999999998" y="181" width="111.11" height="80" as="geometry" />
        </mxCell>
        <mxCell id="60ZnH8WcEPi6PyOxubV6-2" value="" style="sketch=0;outlineConnect=0;fontColor=#232F3E;gradientColor=none;fillColor=#000000;strokeColor=none;dashed=0;verticalLabelPosition=bottom;verticalAlign=top;align=center;html=1;fontSize=12;fontStyle=0;aspect=fixed;pointerEvents=1;shape=mxgraph.aws4.magnifying_glass;" parent="1" vertex="1">
          <mxGeometry x="62.5" y="195" width="39" height="39" as="geometry" />
        </mxCell>
        <mxCell id="60ZnH8WcEPi6PyOxubV6-3" value="State of art" style="text;html=1;strokeColor=none;fillColor=none;align=center;verticalAlign=middle;whiteSpace=wrap;rounded=0;fontSize=20;fontStyle=1" parent="1" vertex="1">
          <mxGeometry x="18" y="275" width="130" height="30" as="geometry" />
        </mxCell>
        <mxCell id="60ZnH8WcEPi6PyOxubV6-4" value="Market analysis:" style="text;html=1;strokeColor=none;fillColor=none;align=center;verticalAlign=middle;whiteSpace=wrap;rounded=0;" parent="1" vertex="1">
          <mxGeometry x="26" y="310" width="90" height="30" as="geometry" />
        </mxCell>
        <mxCell id="60ZnH8WcEPi6PyOxubV6-6" value="- Social media&lt;br&gt;- Social media apps&lt;br&gt;- Recommendation algorithms" style="text;html=1;strokeColor=none;fillColor=none;align=left;verticalAlign=middle;whiteSpace=wrap;rounded=0;" parent="1" vertex="1">
          <mxGeometry x="19" y="320" width="220" height="90" as="geometry" />
        </mxCell>
        <mxCell id="60ZnH8WcEPi6PyOxubV6-10" value="" style="curved=1;endArrow=classic;html=1;rounded=0;" parent="1" edge="1">
          <mxGeometry width="50" height="50" relative="1" as="geometry">
            <mxPoint x="89" y="417" as="sourcePoint" />
            <mxPoint x="169" y="497" as="targetPoint" />
            <Array as="points">
              <mxPoint x="139" y="447" />
              <mxPoint x="89" y="497" />
            </Array>
          </mxGeometry>
        </mxCell>
        <mxCell id="60ZnH8WcEPi6PyOxubV6-11" value="" style="sketch=0;pointerEvents=1;shadow=0;dashed=0;html=1;strokeColor=none;fillColor=#434445;aspect=fixed;labelPosition=center;verticalLabelPosition=bottom;verticalAlign=top;align=center;outlineConnect=0;shape=mxgraph.vvd.laptop;" parent="1" vertex="1">
          <mxGeometry x="191" y="418" width="111.11" height="80" as="geometry" />
        </mxCell>
        <mxCell id="60ZnH8WcEPi6PyOxubV6-12" value="" style="shape=image;html=1;verticalAlign=top;verticalLabelPosition=bottom;labelBackgroundColor=#ffffff;imageAspect=0;aspect=fixed;image=https://cdn4.iconfinder.com/data/icons/48-bubbles/48/15.Pencil-128.png" parent="1" vertex="1">
          <mxGeometry x="223.56" y="428" width="49" height="49" as="geometry" />
        </mxCell>
        <mxCell id="60ZnH8WcEPi6PyOxubV6-13" value="" style="curved=1;endArrow=classic;html=1;rounded=0;" parent="1" edge="1">
          <mxGeometry width="50" height="50" relative="1" as="geometry">
            <mxPoint x="252.11" y="393.5" as="sourcePoint" />
            <mxPoint x="292.11" y="284.5" as="targetPoint" />
            <Array as="points">
              <mxPoint x="302.11" y="363.5" />
              <mxPoint x="252.11" y="313.5" />
            </Array>
          </mxGeometry>
        </mxCell>
        <mxCell id="60ZnH8WcEPi6PyOxubV6-14" value="Design" style="text;html=1;strokeColor=none;fillColor=none;align=center;verticalAlign=middle;whiteSpace=wrap;rounded=0;fontSize=20;fontStyle=1" parent="1" vertex="1">
          <mxGeometry x="180.06" y="508" width="130" height="30" as="geometry" />
        </mxCell>
        <mxCell id="60ZnH8WcEPi6PyOxubV6-15" value="- Logo&lt;br&gt;- Mockups&lt;br&gt;- Database" style="text;html=1;strokeColor=none;fillColor=none;align=left;verticalAlign=middle;whiteSpace=wrap;rounded=0;" parent="1" vertex="1">
          <mxGeometry x="195" y="523" width="170" height="90" as="geometry" />
        </mxCell>
        <mxCell id="60ZnH8WcEPi6PyOxubV6-16" value="" style="shape=image;html=1;verticalAlign=top;verticalLabelPosition=bottom;labelBackgroundColor=#ffffff;imageAspect=0;aspect=fixed;image=https://cdn0.iconfinder.com/data/icons/communication-technology/500/website-128.png" parent="1" vertex="1">
          <mxGeometry x="301.67" y="72" width="165" height="165" as="geometry" />
        </mxCell>
        <mxCell id="60ZnH8WcEPi6PyOxubV6-17" value="" style="sketch=0;pointerEvents=1;shadow=0;dashed=0;html=1;strokeColor=none;fillColor=#434445;aspect=fixed;labelPosition=center;verticalLabelPosition=bottom;verticalAlign=top;align=center;outlineConnect=0;shape=mxgraph.vvd.laptop;" parent="1" vertex="1">
          <mxGeometry x="329.11" y="116" width="111.11" height="80" as="geometry" />
        </mxCell>
        <mxCell id="60ZnH8WcEPi6PyOxubV6-18" value="Web development&amp;nbsp;" style="text;html=1;strokeColor=none;fillColor=none;align=center;verticalAlign=middle;whiteSpace=wrap;rounded=0;fontSize=20;fontStyle=1" parent="1" vertex="1">
          <mxGeometry x="293.67" y="206" width="191.83" height="30" as="geometry" />
        </mxCell>
        <mxCell id="60ZnH8WcEPi6PyOxubV6-19" value="&amp;nbsp; Creation:&lt;br&gt;&lt;br&gt;- User interface&lt;br&gt;- API&lt;br&gt;- Authentication&lt;br&gt;- Authorization" style="text;html=1;strokeColor=none;fillColor=none;align=left;verticalAlign=middle;whiteSpace=wrap;rounded=0;" parent="1" vertex="1">
          <mxGeometry x="324" y="245" width="170" height="90" as="geometry" />
        </mxCell>
        <mxCell id="60ZnH8WcEPi6PyOxubV6-21" value="" style="sketch=0;pointerEvents=1;shadow=0;dashed=0;html=1;strokeColor=none;fillColor=#434445;aspect=fixed;labelPosition=center;verticalLabelPosition=bottom;verticalAlign=top;align=center;outlineConnect=0;shape=mxgraph.vvd.laptop;" parent="1" vertex="1">
          <mxGeometry x="547.36" y="344" width="111.11" height="80" as="geometry" />
        </mxCell>
        <mxCell id="60ZnH8WcEPi6PyOxubV6-23" value="- Replicate pearson algorithm&lt;br&gt;- Adjust it to our project in JS" style="text;html=1;strokeColor=none;fillColor=none;align=left;verticalAlign=middle;whiteSpace=wrap;rounded=0;" parent="1" vertex="1">
          <mxGeometry x="522.91" y="460" width="170" height="90" as="geometry" />
        </mxCell>
        <mxCell id="60ZnH8WcEPi6PyOxubV6-24" value="Algorithm development&amp;nbsp;" style="text;html=1;strokeColor=none;fillColor=none;align=center;verticalAlign=middle;whiteSpace=wrap;rounded=0;fontSize=20;fontStyle=1" parent="1" vertex="1">
          <mxGeometry x="509" y="442" width="191.83" height="30" as="geometry" />
        </mxCell>
        <mxCell id="60ZnH8WcEPi6PyOxubV6-26" value="" style="shape=image;html=1;verticalAlign=top;verticalLabelPosition=bottom;labelBackgroundColor=#ffffff;imageAspect=0;aspect=fixed;image=https://cdn1.iconfinder.com/data/icons/seo-and-web-development-6/32/development_site_map_algorithm_scheme-128.png" parent="1" vertex="1">
          <mxGeometry x="572.91" y="349" width="62" height="62" as="geometry" />
        </mxCell>
        <mxCell id="60ZnH8WcEPi6PyOxubV6-27" value="" style="curved=1;endArrow=classic;html=1;rounded=0;" parent="1" edge="1">
          <mxGeometry width="50" height="50" relative="1" as="geometry">
            <mxPoint x="440.22" y="310" as="sourcePoint" />
            <mxPoint x="520.22" y="390" as="targetPoint" />
            <Array as="points">
              <mxPoint x="490.22" y="340" />
              <mxPoint x="440.22" y="390" />
            </Array>
          </mxGeometry>
        </mxCell>
        <mxCell id="SKIFa37f7cggZ00PsyzF-1" value="" style="curved=1;endArrow=classic;html=1;rounded=0;" edge="1" parent="1">
          <mxGeometry width="50" height="50" relative="1" as="geometry">
            <mxPoint x="613.47" y="316" as="sourcePoint" />
            <mxPoint x="653.47" y="207" as="targetPoint" />
            <Array as="points">
              <mxPoint x="663.47" y="286" />
              <mxPoint x="613.47" y="236" />
            </Array>
          </mxGeometry>
        </mxCell>
        <mxCell id="SKIFa37f7cggZ00PsyzF-2" value="Testing" style="text;html=1;strokeColor=none;fillColor=none;align=center;verticalAlign=middle;whiteSpace=wrap;rounded=0;fontSize=20;fontStyle=1" vertex="1" parent="1">
          <mxGeometry x="635" y="207" width="191.83" height="30" as="geometry" />
        </mxCell>
        <mxCell id="SKIFa37f7cggZ00PsyzF-3" value="- Test some of the functionalities in the app" style="text;html=1;strokeColor=none;fillColor=none;align=left;verticalAlign=middle;whiteSpace=wrap;rounded=0;" vertex="1" parent="1">
          <mxGeometry x="673.8299999999999" y="211" width="170" height="90" as="geometry" />
        </mxCell>
        <mxCell id="SKIFa37f7cggZ00PsyzF-4" value="" style="sketch=0;pointerEvents=1;shadow=0;dashed=0;html=1;strokeColor=none;fillColor=#434445;aspect=fixed;labelPosition=center;verticalLabelPosition=bottom;verticalAlign=top;align=center;outlineConnect=0;shape=mxgraph.vvd.laptop;" vertex="1" parent="1">
          <mxGeometry x="675.36" y="116" width="111.11" height="80" as="geometry" />
        </mxCell>
        <mxCell id="SKIFa37f7cggZ00PsyzF-6" value="" style="verticalLabelPosition=bottom;verticalAlign=top;html=1;shape=mxgraph.basic.tick" vertex="1" parent="1">
          <mxGeometry x="712.0699999999999" y="128" width="35.7" height="42" as="geometry" />
        </mxCell>
      </root>
    </mxGraphModel>
  </diagram>
</mxfile>
